<svg id="Capa_1" enable-background="new 0 0 512 512" height="512" viewBox="0 0 512 512" width="512" xmlns="http://www.w3.org/2000/svg"><g><path d="m361 497.75c-12.406 0-22.5-10.094-22.5-22.5 0-3.47.789-6.758 2.198-9.695l-24.704-24.703c-1.406-1.407-2.196-3.314-2.196-5.304v-17.273c-17.679 12.696-37.115 22.812-50.298 27.699v8.062c8.73 3.096 15 11.437 15 21.215 0 12.406-10.094 22.5-22.5 22.5s-22.5-10.094-22.5-22.5c0-9.778 6.27-18.119 15-21.215v-8.062c-13.18-4.886-32.618-15.001-50.298-27.698v17.272c0 1.989-.79 3.896-2.196 5.304l-24.704 24.703c1.409 2.938 2.198 6.226 2.198 9.695 0 12.406-10.094 22.5-22.5 22.5s-22.5-10.094-22.5-22.5 10.094-22.5 22.5-22.5c3.47 0 6.758.789 9.695 2.198l22.507-22.507v-26.025c-6.264-5.497-11.892-11.273-16.396-17.166h-57.661c-60.182 0-109.145-48.962-109.145-109.145 0-38.056 19.772-73.172 51.973-92.99-2.213-10.05-3.333-20.353-3.333-30.705 0-28.602 8.459-56.181 24.464-79.755 2.326-3.428 6.989-4.319 10.418-1.992 3.427 2.326 4.319 6.99 1.992 10.418-14.311 21.078-21.874 45.744-21.874 71.329 0 10.992 1.409 21.918 4.189 32.474.879 3.338-.634 6.844-3.664 8.496-30.326 16.527-49.165 48.226-49.165 82.725 0 51.911 42.233 94.145 94.146 94.145h48.712c-23.225-48.992-31.53-143.131-31.53-163.963 0-4.37 2.1-8.346 5.48-10.374 23.315-13.988 62.943-28.775 117.782-43.949 1.604-.443 4.857-1.387 6.41-1.387s4.804.943 6.406 1.386c8.353 2.312 27.912 7.723 49.821 15.056 3.928 1.314 6.046 5.564 4.731 9.493-1.315 3.927-5.563 6.05-9.493 4.731-21.531-7.206-40.822-12.544-49.06-14.823-.948-.263-1.754-.485-2.406-.668-.652.183-1.46.406-2.409.669-64.139 17.747-96.333 32.085-112.249 41.285.396 21.461 9.107 118.229 32.808 161.502 13.638 24.902 59.838 52.126 81.851 59.513 22.021-7.393 68.214-34.613 81.851-59.513 23.7-43.273 32.411-140.042 32.808-161.502-9.069-5.248-20.968-10.771-35.412-16.437-3.856-1.513-5.756-5.865-4.244-9.721 1.513-3.857 5.862-5.757 9.721-4.244 16.204 6.356 29.483 12.617 39.47 18.608 3.381 2.028 5.48 6.004 5.48 10.374 0 21.744-9.048 123.351-34.666 170.126-4.892 8.932-12.836 17.777-22.209 26.003v26.025l22.507 22.507c2.938-1.409 6.226-2.198 9.695-2.198 12.406 0 22.5 10.094 22.5 22.5s-10.095 22.501-22.501 22.501zm0-30c-4.136 0-7.5 3.364-7.5 7.5s3.364 7.5 7.5 7.5 7.5-3.364 7.5-7.5-3.364-7.5-7.5-7.5zm-105 0c-4.136 0-7.5 3.364-7.5 7.5s3.364 7.5 7.5 7.5 7.5-3.364 7.5-7.5-3.364-7.5-7.5-7.5zm-105 0c-4.136 0-7.5 3.364-7.5 7.5s3.364 7.5 7.5 7.5 7.5-3.364 7.5-7.5-3.364-7.5-7.5-7.5zm105.003-51.639c-1.02 0-2.039-.208-2.994-.624-14.397-6.269-32.28-17.216-45.559-27.889-3.229-2.595-3.742-7.315-1.147-10.544 2.596-3.229 7.316-3.742 10.544-1.147 9.074 7.293 20.833 14.936 31.653 20.708v-92.257h-65.449c4.108 19.632 9.365 38.29 15.869 51.47 1.833 3.715.308 8.212-3.407 10.045-3.713 1.832-8.211.308-10.044-3.406-17.319-35.097-26.193-104.927-28.466-136.947-.218-3.078 1.471-5.976 4.256-7.302 21.552-10.269 52.747-21.147 92.72-32.335 1.322-.369 2.721-.369 4.043 0 39.976 11.188 71.172 22.067 92.72 32.335 2.785 1.327 4.474 4.224 4.256 7.302-2.402 33.839-11.826 106.749-30.303 140.482-9.795 17.888-44.448 40.232-65.697 49.485-.955.416-1.976.624-2.995.624zm7.497-111.753v92.271c19.639-10.449 42.074-26.942 48.038-37.833 15.284-27.905 24.929-90.528 28.102-129.192-18.729-8.447-44.277-17.363-76.14-26.569v86.323h44.553c4.143 0 7.5 3.357 7.5 7.5s-3.357 7.5-7.5 7.5zm-83.346-15h68.346v-86.323c-31.86 9.206-57.407 18.12-76.138 26.568 1.28 15.49 3.831 37.522 7.792 59.755zm241.946 99.892h-45.731c-4.143 0-7.5-3.357-7.5-7.5s3.357-7.5 7.5-7.5h45.731c41.3 0 74.9-33.601 74.9-74.9s-33.601-74.899-74.9-74.899c-4.143 0-7.5-3.357-7.5-7.5 0-45.259-36.82-82.079-82.079-82.079-3.049 0-6.161.176-9.251.521-3.829.437-7.356-2.11-8.167-5.875-12.508-58.099-64.785-100.268-124.303-100.268-31.578 0-61.857 11.654-85.258 32.814-3.07 2.779-7.813 2.542-10.593-.532-2.778-3.072-2.54-7.814.532-10.593 26.163-23.66 60.015-36.689 95.318-36.689 80.44 0 125.32 59.117 137.432 105.717 1.437-.063 2.868-.096 4.289-.096 51.105 0 93.114 39.69 96.814 89.867 46.2 3.697 82.665 42.477 82.665 89.611.001 49.572-40.328 89.901-89.899 89.901z"/></g></svg>