<?xml version="1.0"?>
<svg xmlns="http://www.w3.org/2000/svg" id="Outline" viewBox="0 0 512 512" width="512" height="512"><path d="M24,384H144v16a8,8,0,0,0,8,8H360a8,8,0,0,0,8-8V384h32v32.242a136.1,136.1,0,0,0,4.061,32.985l4.178,16.713A8,8,0,0,0,416,472h32a8,8,0,0,0,7.761-6.06l4.178-16.713A136.1,136.1,0,0,0,464,416.242V384h24a8,8,0,0,0,8-8V72a8,8,0,0,0-8-8H328V48a8,8,0,0,0-8-8H192a8,8,0,0,0-8,8V64H24a8,8,0,0,0-8,8V376A8,8,0,0,0,24,384Zm328,8H160V360H352Zm91.729-172.533h0A56.2,56.2,0,0,1,456,254.45V256a24,24,0,0,1-48,0v-1.55a56.2,56.2,0,0,1,12.271-34.983L432,204.806ZM432,296a39.943,39.943,0,0,0,9.468-1.142l2.949,11.8c.443,1.772.832,3.557,1.193,5.347H418.39c.361-1.79.75-3.575,1.193-5.347l2.949-11.8A39.943,39.943,0,0,0,432,296Zm16,120.242a120.133,120.133,0,0,1-3.583,29.1L441.754,456H422.246l-2.663-10.654a120.133,120.133,0,0,1-3.583-29.1V335.757q0-3.882.257-7.757h31.486q.251,3.873.257,7.757ZM480,368H464V335.757a136.108,136.108,0,0,0-4.061-32.985L456.2,287.82A39.955,39.955,0,0,0,472,256v-1.55a72.259,72.259,0,0,0-15.777-44.978L448,199.194V168a16,16,0,0,1,32,0ZM200,56H312V88H200ZM32,80H184V96a8,8,0,0,0,8,8H320a8,8,0,0,0,8-8V80H480v60.294A31.991,31.991,0,0,0,432,168v16a8,8,0,0,0-6.247,3l-17.975,22.47A72.284,72.284,0,0,0,392.4,247.08,32.052,32.052,0,0,1,368,216V168a32,32,0,0,0-64,0v48a32,32,0,0,1-64,0V176a40,40,0,0,0-80,0v40a64,64,0,0,1-128,0ZM255.753,261.164a55.994,55.994,0,0,1-107.772,15.572A79.83,79.83,0,0,0,176,216V176a24,24,0,0,1,48,0v40A48.078,48.078,0,0,0,255.753,261.164ZM96,296a79.486,79.486,0,0,0,38.584-9.948,71.986,71.986,0,0,0,136.962-22.063c.152,0,.3.011.454.011a48.055,48.055,0,0,0,48-48V168a16,16,0,0,1,32,0v48a48.077,48.077,0,0,0,40.706,47.447A40.046,40.046,0,0,0,407.8,287.82l-3.738,14.953A136.093,136.093,0,0,0,400,335.757V368H368V352a8,8,0,0,0-8-8H152a8,8,0,0,0-8,8v16H32V263.945A79.925,79.925,0,0,0,96,296Z"/><path d="M336,328a32,32,0,1,0-32-32A32.036,32.036,0,0,0,336,328Zm0-48a16,16,0,1,1-16,16A16.019,16.019,0,0,1,336,280Z"/></svg>
